ISO-10303-21;
HEADER;
FILE_DESCRIPTION (( 'STEP AP203' ),
    '1' );
FILE_NAME ('pieza jornada 1.STEP',
    '2026-03-03T14:54:48',
    ( '' ),
    ( '' ),
    'SwSTEP 2.0',
    'SolidWorks 2025',
    '' );
FILE_SCHEMA (( 'CONFIG_CONTROL_DESIGN' ));
ENDSEC;

DATA;
#1 = AXIS2_PLACEMENT_3D ( 'NONE', #671, #594, #247 ) ;
#2 = CARTESIAN_POINT ( 'NONE',  ( 164.0000000000000284, -34.99999999999997868, 0.000000000000000000 ) ) ;
#3 = VERTEX_POINT ( 'NONE', #296 ) ;
#4 = DIRECTION ( 'NONE',  ( 0.000000000000000000, 0.000000000000000000, 1.000000000000000000 ) ) ;
#5 = CARTESIAN_POINT ( 'NONE',  ( 75.00000000000000000, 64.99999999999997158, -15.00000000000000000 ) ) ;
#6 = DIRECTION ( 'NONE',  ( -5.947623346206195330E-16, -1.000000000000000000, 0.000000000000000000 ) ) ;
#7 = ORIENTED_EDGE ( 'NONE', *, *, #434, .T. ) ;
#8 = DIRECTION ( 'NONE',  ( 1.000000000000000000, -6.938893903907228378E-16, 0.000000000000000000 ) ) ;
#9 = CARTESIAN_POINT ( 'NONE',  ( 164.0000000000000000, 65.00000000000000000, 0.000000000000000000 ) ) ;
#10 = DIRECTION ( 'NONE',  ( 0.000000000000000000, 0.000000000000000000, -1.000000000000000000 ) ) ;
#11 = AXIS2_PLACEMENT_3D ( 'NONE', #324, #403, #683 ) ;
#12 = EDGE_CURVE ( 'NONE', #408, #624, #500, .T. ) ;
#13 = ORIENTED_EDGE ( 'NONE', *, *, #244, .F. ) ;
#14 = EDGE_LOOP ( 'NONE', ( #223, #38 ) ) ;
#15 = VECTOR ( 'NONE', #270, 1000.000000000000000 ) ;
#16 = DIRECTION ( 'NONE',  ( -1.000000000000000000, 0.000000000000000000, 0.000000000000000000 ) ) ;
#17 = VERTEX_POINT ( 'NONE', #708 ) ;
#18 = VERTEX_POINT ( 'NONE', #432 ) ;
#19 = EDGE_CURVE ( 'NONE', #785, #869, #860, .T. ) ;
#20 = DIRECTION ( 'NONE',  ( -0.000000000000000000, 1.000000000000000000, -0.000000000000000000 ) ) ;
#21 = ORIENTED_EDGE ( 'NONE', *, *, #555, .F. ) ;
#22 = CC_DESIGN_APPROVAL ( #501, ( #409 ) ) ;
#23 = ADVANCED_FACE ( 'NONE', ( #781 ), #26, .F. ) ;
#24 = AXIS2_PLACEMENT_3D ( 'NONE', #316, #102, #742 ) ;
#25 = CARTESIAN_POINT ( 'NONE',  ( 35.00000000000000711, -20.00000000000000711, 15.00000000000000000 ) ) ;
#26 = PLANE ( 'NONE',  #349 ) ;
#27 = ADVANCED_FACE ( 'NONE', ( #292 ), #364, .T. ) ;
#28 = CARTESIAN_POINT ( 'NONE',  ( 75.00000000000001421, -24.99999999999999289, 15.00000000000000000 ) ) ;
#29 = AXIS2_PLACEMENT_3D ( 'NONE', #711, #284, #228 ) ;
#30 = DIRECTION ( 'NONE',  ( -1.982541115402065356E-16, 1.000000000000000000, -0.000000000000000000 ) ) ;
#31 = ORIENTED_EDGE ( 'NONE', *, *, #744, .T. ) ;
#32 = CIRCLE ( 'NONE', #540, 5.499999999999996447 ) ;
#33 = LINE ( 'NONE', #309, #692 ) ;
#34 = DIRECTION ( 'NONE',  ( -1.982541115402065356E-16, 1.000000000000000000, 0.000000000000000000 ) ) ;
#35 = ORIENTED_EDGE ( 'NONE', *, *, #212, .T. ) ;
#36 = CARTESIAN_POINT ( 'NONE',  ( 145.0000000000000000, 34.99999999999998579, 15.00000000000000000 ) ) ;
#37 = CARTESIAN_POINT ( 'NONE',  ( 35.00000000000000000, 64.99999999999997158, 15.00000000000000000 ) ) ;
#38 = ORIENTED_EDGE ( 'NONE', *, *, #633, .T. ) ;
#39 = CYLINDRICAL_SURFACE ( 'NONE', #66, 5.499999999999994671 ) ;
#40 = DIRECTION ( 'NONE',  ( 1.914177628664062882E-16, -1.000000000000000000, 0.000000000000000000 ) ) ;
#41 = EDGE_LOOP ( 'NONE', ( #431, #852, #736, #356, #368 ) ) ;
#42 = EDGE_CURVE ( 'NONE', #136, #117, #32, .T. ) ;
#43 = LINE ( 'NONE', #455, #858 ) ;
#44 = DIRECTION ( 'NONE',  ( 1.914177628664062882E-16, -1.000000000000000000, -0.000000000000000000 ) ) ;
#45 = VERTEX_POINT ( 'NONE', #443 ) ;
#46 = CARTESIAN_POINT ( 'NONE',  ( 164.9999999999999716, 34.99999999999999289, 0.000000000000000000 ) ) ;
#47 = CARTESIAN_POINT ( 'NONE',  ( 0.000000000000000000, -20.00000000000000000, -15.00000000000000000 ) ) ;
#48 = VERTEX_POINT ( 'NONE', #643 ) ;
#49 = UNCERTAINTY_MEASURE_WITH_UNIT (LENGTH_MEASURE( 1.000000000000000082E-05 ), #472, 'distance_accuracy_value', 'NONE');
#50 = AXIS2_PLACEMENT_3D ( 'NONE', #67, #896, #551 ) ;
#51 = EDGE_CURVE ( 'NONE', #811, #408, #625, .T. ) ;
#52 = DIRECTION ( 'NONE',  ( 1.000000000000000000, 1.914177628664062882E-16, 0.000000000000000000 ) ) ;
#53 = VECTOR ( 'NONE', #413, 1000.000000000000000 ) ;
#54 = DIRECTION ( 'NONE',  ( 1.000000000000000000, 1.982541115402065110E-16, -0.000000000000000000 ) ) ;
#55 = EDGE_LOOP ( 'NONE', ( #770, #94, #60, #315 ) ) ;
#56 = CIRCLE ( 'NONE', #305, 15.00000000000000000 ) ;
#57 =( NAMED_UNIT ( * ) SI_UNIT ( $, .STERADIAN. ) SOLID_ANGLE_UNIT ( ) );
#58 = CARTESIAN_POINT ( 'NONE',  ( 158.5000000000000284, -34.99999999999997868, 6.735557395310478508E-16 ) ) ;
#59 = DIRECTION ( 'NONE',  ( -1.982541115402064863E-16, -1.000000000000000000, 0.000000000000000000 ) ) ;
#60 = ORIENTED_EDGE ( 'NONE', *, *, #279, .F. ) ;
#61 = CYLINDRICAL_SURFACE ( 'NONE', #63, 15.00000000000001421 ) ;
#62 = DIRECTION ( 'NONE',  ( -1.000000000000000000, 0.000000000000000000, 0.000000000000000000 ) ) ;
#63 = AXIS2_PLACEMENT_3D ( 'NONE', #78, #282, #210 ) ;
#64 = CARTESIAN_POINT ( 'NONE',  ( 35.00000000000000711, -20.00000000000000711, -15.00000000000000000 ) ) ;
#65 = ORIENTED_EDGE ( 'NONE', *, *, #42, .F. ) ;
#66 = AXIS2_PLACEMENT_3D ( 'NONE', #879, #809, #182 ) ;
#67 = CARTESIAN_POINT ( 'NONE',  ( 15.00000000000000000, 0.000000000000000000, 0.000000000000000000 ) ) ;
#68 = FACE_BOUND ( 'NONE', #14, .T. ) ;
#69 = ORIENTED_EDGE ( 'NONE', *, *, #697, .T. ) ;
#70 = EDGE_CURVE ( 'NONE', #676, #382, #656, .T. ) ;
#71 = CARTESIAN_POINT ( 'NONE',  ( 15.00000000000000000, -20.00000000000000355, 0.000000000000000000 ) ) ;
#72 = CIRCLE ( 'NONE', #375, 14.99999999999998579 ) ;
#73 = VECTOR ( 'NONE', #255, 1000.000000000000000 ) ;
#74 = DIRECTION ( 'NONE',  ( 1.000000000000000000, 1.914177628664062882E-16, 0.000000000000000000 ) ) ;
#75 = VERTEX_POINT ( 'NONE', #778 ) ;
#76 = DIRECTION ( 'NONE',  ( -0.000000000000000000, 0.000000000000000000, 1.000000000000000000 ) ) ;
#77 = ORIENTED_EDGE ( 'NONE', *, *, #348, .T. ) ;
#78 = CARTESIAN_POINT ( 'NONE',  ( 164.9999999999999716, 1.526556658859590243E-13, 0.000000000000000000 ) ) ;
#79 = ADVANCED_FACE ( 'NONE', ( #380 ), #871, .F. ) ;
#80 = CARTESIAN_POINT ( 'NONE',  ( 165.0000000000000284, -64.99999999999997158, 15.00000000000000000 ) ) ;
#81 = VERTEX_POINT ( 'NONE', #724 ) ;
#82 = EDGE_LOOP ( 'NONE', ( #239, #308, #347, #126, #440, #256, #894, #745, #877, #798, #248, #453, #630, #557 ) ) ;
#83 = ORIENTED_EDGE ( 'NONE', *, *, #218, .F. ) ;
#84 = EDGE_CURVE ( 'NONE', #572, #390, #527, .T. ) ;
#85 = DIRECTION ( 'NONE',  ( -1.000000000000000000, 0.000000000000000000, 0.000000000000000000 ) ) ;
#86 = CARTESIAN_POINT ( 'NONE',  ( 180.0000000000000000, -34.99999999999997868, -15.00000000000000000 ) ) ;
#87 = ORIENTED_EDGE ( 'NONE', *, *, #633, .F. ) ;
#88 = ORIENTED_EDGE ( 'NONE', *, *, #70, .T. ) ;
#89 = CARTESIAN_POINT ( 'NONE',  ( 35.00000000000001421, -65.00000000000000000, 15.00000000000000000 ) ) ;
#90 = CARTESIAN_POINT ( 'NONE',  ( 158.5000000000000000, 65.00000000000000000, 6.735557395310463717E-16 ) ) ;
#91 = ADVANCED_FACE ( 'NONE', ( #176 ), #802, .T. ) ;
#92 = SHAPE_DEFINITION_REPRESENTATION ( #570, #346 ) ;
#93 = DIRECTION ( 'NONE',  ( 0.000000000000000000, 0.000000000000000000, -1.000000000000000000 ) ) ;
#94 = ORIENTED_EDGE ( 'NONE', *, *, #568, .F. ) ;
#95 = DIRECTION ( 'NONE',  ( 1.982541115402064863E-16, 1.000000000000000000, -0.000000000000000000 ) ) ;
#96 = APPROVAL ( #865, 'UNSPECIFIED' ) ;
#97 = CIRCLE ( 'NONE', #183, 5.500000000000005329 ) ;
#98 = FACE_OUTER_BOUND ( 'NONE', #55, .T. ) ;
#99 = PLANE ( 'NONE',  #1 ) ;
#100 = ORIENTED_EDGE ( 'NONE', *, *, #206, .T. ) ;
#101 = AXIS2_PLACEMENT_3D ( 'NONE', #170, #729, #104 ) ;
#102 = DIRECTION ( 'NONE',  ( 0.000000000000000000, -0.000000000000000000, -1.000000000000000000 ) ) ;
#103 = VECTOR ( 'NONE', #362, 1000.000000000000000 ) ;
#104 = DIRECTION ( 'NONE',  ( -1.000000000000000000, -1.982541115402065356E-16, 0.000000000000000000 ) ) ;
#105 = ORIENTED_EDGE ( 'NONE', *, *, #84, .F. ) ;
#106 = EDGE_CURVE ( 'NONE', #17, #588, #184, .T. ) ;
#107 = PLANE ( 'NONE',  #533 ) ;
#108 = DIRECTION ( 'NONE',  ( 0.000000000000000000, -1.000000000000000000, 0.000000000000000000 ) ) ;
#109 = ORIENTED_EDGE ( 'NONE', *, *, #862, .F. ) ;
#110 = CARTESIAN_POINT ( 'NONE',  ( 35.00000000000000711, -25.00000000000000000, 15.00000000000000000 ) ) ;
#111 = AXIS2_PLACEMENT_3D ( 'NONE', #841, #628, #85 ) ;
#112 = CC_DESIGN_PERSON_AND_ORGANIZATION_ASSIGNMENT ( #293, #433, ( #409 ) ) ;
#113 = CARTESIAN_POINT ( 'NONE',  ( 180.0000000000000000, -34.99999999999997868, 0.000000000000000000 ) ) ;
#114 = ORIENTED_EDGE ( 'NONE', *, *, #591, .T. ) ;
#115 = DIRECTION ( 'NONE',  ( 1.000000000000000000, 0.000000000000000000, 0.000000000000000000 ) ) ;
#116 = DIRECTION ( 'NONE',  ( -0.000000000000000000, -1.000000000000000000, -0.000000000000000000 ) ) ;
#117 = VERTEX_POINT ( 'NONE', #743 ) ;
#118 = ADVANCED_FACE ( 'NONE', ( #447, #735 ), #602, .F. ) ;
#119 = AXIS2_PLACEMENT_3D ( 'NONE', #810, #187, #371 ) ;
#120 = DIRECTION ( 'NONE',  ( 1.000000000000000000, -5.947623346206195330E-16, 0.000000000000000000 ) ) ;
#121 = DIRECTION ( 'NONE',  ( 1.000000000000000000, 0.000000000000000000, 0.000000000000000000 ) ) ;
#122 = VERTEX_POINT ( 'NONE', #384 ) ;
#123 = CC_DESIGN_DATE_AND_TIME_ASSIGNMENT ( #584, #861, ( #773 ) ) ;
#124 = DIRECTION ( 'NONE',  ( 1.914177628664062882E-16, -1.000000000000000000, -0.000000000000000000 ) ) ;
#125 = CARTESIAN_POINT ( 'NONE',  ( 35.00000000000000000, 64.99999999999997158, 15.00000000000000000 ) ) ;
#126 = ORIENTED_EDGE ( 'NONE', *, *, #657, .T. ) ;
#127 = VECTOR ( 'NONE', #629, 1000.000000000000000 ) ;
#128 = FACE_OUTER_BOUND ( 'NONE', #361, .T. ) ;
#129 = VECTOR ( 'NONE', #833, 1000.000000000000000 ) ;
#130 = DIRECTION ( 'NONE',  ( 1.000000000000000000, 1.982541115402065110E-16, -0.000000000000000000 ) ) ;
#131 = ORIENTED_EDGE ( 'NONE', *, *, #267, .F. ) ;
#132 = APPROVAL_STATUS ( 'not_yet_approved' ) ;
#133 = CARTESIAN_POINT ( 'NONE',  ( 35.00000000000000711, -20.00000000000000711, -15.00000000000000000 ) ) ;
#134 = ADVANCED_FACE ( 'NONE', ( #797, #388 ), #99, .F. ) ;
#135 = DIRECTION ( 'NONE',  ( -0.000000000000000000, 1.000000000000000000, -0.000000000000000000 ) ) ;
#136 = VERTEX_POINT ( 'NONE', #250 ) ;
#137 = DIRECTION ( 'NONE',  ( -1.982541115402064863E-16, -1.000000000000000000, 0.000000000000000000 ) ) ;
#138 = CARTESIAN_POINT ( 'NONE',  ( 35.00000000000000711, -25.00000000000000000, 15.00000000000000000 ) ) ;
#139 = VECTOR ( 'NONE', #476, 1000.000000000000000 ) ;
#140 = CARTESIAN_POINT ( 'NONE',  ( 15.00000000000000000, -20.00000000000000355, 0.000000000000000000 ) ) ;
#141 = EDGE_CURVE ( 'NONE', #511, #81, #377, .T. ) ;
#142 = ORIENTED_EDGE ( 'NONE', *, *, #766, .F. ) ;
#143 = CIRCLE ( 'NONE', #768, 15.00000000000001421 ) ;
#144 = DIRECTION ( 'NONE',  ( 1.000000000000000000, 0.000000000000000000, 0.000000000000000000 ) ) ;
#145 = CARTESIAN_POINT ( 'NONE',  ( 158.5000000000000000, 65.00000000000000000, 6.735557395310463717E-16 ) ) ;
#146 = VERTEX_POINT ( 'NONE', #180 ) ;
#147 = EDGE_CURVE ( 'NONE', #251, #439, #241, .T. ) ;
#148 = DIRECTION ( 'NONE',  ( -0.000000000000000000, -1.000000000000000000, -0.000000000000000000 ) ) ;
#149 = VECTOR ( 'NONE', #158, 1000.000000000000000 ) ;
#150 = AXIS2_PLACEMENT_3D ( 'NONE', #561, #76, #631 ) ;
#151 = CARTESIAN_POINT ( 'NONE',  ( 35.00000000000000000, 19.99999999999997868, 15.00000000000000000 ) ) ;
#152 = VERTEX_POINT ( 'NONE', #113 ) ;
#153 = EDGE_CURVE ( 'NONE', #751, #695, #884, .T. ) ;
#154 = DIRECTION ( 'NONE',  ( -0.000000000000000000, -1.000000000000000000, -0.000000000000000000 ) ) ;
#155 = VECTOR ( 'NONE', #895, 1000.000000000000000 ) ;
#156 = ORIENTED_EDGE ( 'NONE', *, *, #360, .T. ) ;
#157 = CARTESIAN_POINT ( 'NONE',  ( 75.00000000000002842, -64.99999999999998579, 15.00000000000000000 ) ) ;
#158 = DIRECTION ( 'NONE',  ( -0.000000000000000000, -0.000000000000000000, -1.000000000000000000 ) ) ;
#159 = ORIENTED_EDGE ( 'NONE', *, *, #481, .T. ) ;
#160 = EDGE_LOOP ( 'NONE', ( #717, #616, #109, #7 ) ) ;
#161 = DIRECTION ( 'NONE',  ( 1.000000000000000000, 0.000000000000000000, 0.000000000000000000 ) ) ;
#162 = EDGE_CURVE ( 'NONE', #436, #834, #233, .T. ) ;
#163 = ORIENTED_EDGE ( 'NONE', *, *, #808, .T. ) ;
#164 = CARTESIAN_POINT ( 'NONE',  ( 16.00000000000000711, -20.00000000000000355, 0.000000000000000000 ) ) ;
#165 = DIRECTION ( 'NONE',  ( -0.000000000000000000, 0.000000000000000000, 1.000000000000000000 ) ) ;
#166 = DIRECTION ( 'NONE',  ( 1.914177628664062882E-16, -1.000000000000000000, -0.000000000000000000 ) ) ;
#167 = CLOSED_SHELL ( 'NONE', ( #79, #733, #496, #703, #134, #650, #783, #301, #23, #188, #118, #174, #684, #597, #771, #514, #673, #787, #813, #793, #91, #867, #27, #716, #690 ) ) ;
#168 = ORIENTED_EDGE ( 'NONE', *, *, #627, .T. ) ;
#169 = CARTESIAN_POINT ( 'NONE',  ( 10.49999999999999289, 64.99999999999997158, 6.735557395310438079E-16 ) ) ;
#170 = CARTESIAN_POINT ( 'NONE',  ( 180.0000000000000000, 34.99999999999999289, 15.00000000000000000 ) ) ;
#171 = VECTOR ( 'NONE', #760, 1000.000000000000000 ) ;
#172 = ORIENTED_EDGE ( 'NONE', *, *, #550, .F. ) ;
#173 = CIRCLE ( 'NONE', #800, 15.00000000000000000 ) ;
#174 = ADVANCED_FACE ( 'NONE', ( #462 ), #531, .F. ) ;
#175 = CARTESIAN_POINT ( 'NONE',  ( 75.00000000000002842, -64.99999999999998579, -15.00000000000000000 ) ) ;
#176 = FACE_OUTER_BOUND ( 'NONE', #185, .T. ) ;
#177 = ORIENTED_EDGE ( 'NONE', *, *, #218, .T. ) ;
#178 = EDGE_CURVE ( 'NONE', #81, #152, #191, .T. ) ;
#179 = DIRECTION ( 'NONE',  ( -1.000000000000000000, 0.000000000000000000, 0.000000000000000000 ) ) ;
#180 = CARTESIAN_POINT ( 'NONE',  ( 15.00000000000000000, -20.00000000000000355, -15.00000000000000000 ) ) ;
#181 = EDGE_LOOP ( 'NONE', ( #607, #488, #506, #159 ) ) ;
#182 = DIRECTION ( 'NONE',  ( 1.000000000000000000, 0.000000000000000000, 0.000000000000000000 ) ) ;
#183 = AXIS2_PLACEMENT_3D ( 'NONE', #513, #738, #451 ) ;
#184 = LINE ( 'NONE', #321, #670 ) ;
#185 = EDGE_LOOP ( 'NONE', ( #425, #172, #672, #664 ) ) ;
#186 = CARTESIAN_POINT ( 'NONE',  ( 15.00000000000000000, -20.00000000000000000, 0.000000000000000000 ) ) ;
#187 = DIRECTION ( 'NONE',  ( 1.000000000000000000, 0.000000000000000000, 0.000000000000000000 ) ) ;
#188 = ADVANCED_FACE ( 'NONE', ( #868, #237 ), #519, .F. ) ;
#189 = VECTOR ( 'NONE', #469, 1000.000000000000000 ) ;
#190 = EDGE_LOOP ( 'NONE', ( #271, #560, #437, #720 ) ) ;
#191 = CIRCLE ( 'NONE', #448, 14.99999999999998579 ) ;
#192 = DIRECTION ( 'NONE',  ( -5.947623346206195330E-16, -1.000000000000000000, 0.000000000000000000 ) ) ;
#193 = CARTESIAN_POINT ( 'NONE',  ( 0.000000000000000000, -20.00000000000000000, 15.00000000000000000 ) ) ;
#194 = ORIENTED_EDGE ( 'NONE', *, *, #178, .T. ) ;
#195 = CARTESIAN_POINT ( 'NONE',  ( 180.0000000000000000, 34.99999999999999289, 0.000000000000000000 ) ) ;
#196 = FACE_OUTER_BOUND ( 'NONE', #686, .T. ) ;
#197 = DIRECTION ( 'NONE',  ( 1.982541115402065356E-16, -1.000000000000000000, 0.000000000000000000 ) ) ;
#198 = ORIENTED_EDGE ( 'NONE', *, *, #19, .F. ) ;
#199 = CIRCLE ( 'NONE', #412, 5.499999999999996447 ) ;
#200 = DATE_AND_TIME ( #489, #897 ) ;
#201 = FACE_OUTER_BOUND ( 'NONE', #386, .T. ) ;
#202 = DIRECTION ( 'NONE',  ( -1.000000000000000000, 0.000000000000000000, 0.000000000000000000 ) ) ;
#203 = AXIS2_PLACEMENT_3D ( 'NONE', #887, #601, #207 ) ;
#204 = EDGE_LOOP ( 'NONE', ( #843, #168, #142, #419, #131, #105, #444, #291, #487, #714, #592, #13, #35, #741 ) ) ;
#205 =( NAMED_UNIT ( * ) PLANE_ANGLE_UNIT ( ) SI_UNIT ( $, .RADIAN. ) );
#206 = EDGE_CURVE ( 'NONE', #792, #660, #372, .T. ) ;
#207 = DIRECTION ( 'NONE',  ( 0.000000000000000000, 0.000000000000000000, -1.000000000000000000 ) ) ;
#208 = CARTESIAN_POINT ( 'NONE',  ( 180.0000000000000000, -34.99999999999997868, 15.00000000000000000 ) ) ;
#209 = EDGE_LOOP ( 'NONE', ( #337, #277 ) ) ;
#210 = DIRECTION ( 'NONE',  ( 1.000000000000000000, 9.251858538542961967E-16, 0.000000000000000000 ) ) ;
#211 = LINE ( 'NONE', #859, #149 ) ;
#212 = EDGE_CURVE ( 'NONE', #146, #75, #590, .T. ) ;
#213 = ORIENTED_EDGE ( 'NONE', *, *, #893, .F. ) ;
#214 = LINE ( 'NONE', #221, #647 ) ;
#215 = CIRCLE ( 'NONE', #565, 40.00000000000000711 ) ;
#216 = ORIENTED_EDGE ( 'NONE', *, *, #343, .F. ) ;
#217 = CARTESIAN_POINT ( 'NONE',  ( 145.0000000000000000, 34.99999999999998579, 15.00000000000000000 ) ) ;
#218 = EDGE_CURVE ( 'NONE', #436, #792, #892, .T. ) ;
#219 = CALENDAR_DATE ( 2026, 3, 3 ) ;
#220 = CIRCLE ( 'NONE', #29, 5.500000000000005329 ) ;
#221 = CARTESIAN_POINT ( 'NONE',  ( 164.9999999999999716, 0.000000000000000000, -15.00000000000000000 ) ) ;
#222 = ORIENTED_EDGE ( 'NONE', *, *, #391, .T. ) ;
#223 = ORIENTED_EDGE ( 'NONE', *, *, #310, .T. ) ;
#224 = DIRECTION ( 'NONE',  ( 1.914177628664062882E-16, -1.000000000000000000, -0.000000000000000000 ) ) ;
#225 =( GEOMETRIC_REPRESENTATION_CONTEXT ( 3 ) GLOBAL_UNCERTAINTY_ASSIGNED_CONTEXT ( ( #49 ) ) GLOBAL_UNIT_ASSIGNED_CONTEXT ( ( #472, #205, #57 ) ) REPRESENTATION_CONTEXT ( 'NONE', 'WORKASPACE' ) );
#226 = ORIENTED_EDGE ( 'NONE', *, *, #244, .T. ) ;
#227 = ORIENTED_EDGE ( 'NONE', *, *, #434, .F. ) ;
#228 = DIRECTION ( 'NONE',  ( -1.000000000000000000, 0.000000000000000000, 0.000000000000000000 ) ) ;
#229 = DIRECTION ( 'NONE',  ( -1.000000000000000000, 0.000000000000000000, 0.000000000000000000 ) ) ;
#230 = CC_DESIGN_APPROVAL ( #96, ( #773 ) ) ;
#231 = EDGE_CURVE ( 'NONE', #424, #405, #823, .T. ) ;
#232 = PLANE ( 'NONE',  #459 ) ;
#233 = CIRCLE ( 'NONE', #702, 5.500000000000005329 ) ;
#234 = ORIENTED_EDGE ( 'NONE', *, *, #525, .F. ) ;
#235 = APPROVAL_ROLE ( '' ) ;
#236 = LINE ( 'NONE', #263, #595 ) ;
#237 = FACE_OUTER_BOUND ( 'NONE', #41, .T. ) ;
#238 = EDGE_CURVE ( 'NONE', #45, #890, #681, .T. ) ;
#239 = ORIENTED_EDGE ( 'NONE', *, *, #395, .T. ) ;
#240 = DIRECTION ( 'NONE',  ( 1.914177628664062882E-16, -1.000000000000000000, -0.000000000000000000 ) ) ;
#241 = LINE ( 'NONE', #456, #421 ) ;
#242 = CIRCLE ( 'NONE', #287, 15.00000000000000000 ) ;
#243 = ORIENTED_EDGE ( 'NONE', *, *, #153, .T. ) ;
#244 = EDGE_CURVE ( 'NONE', #146, #806, #623, .T. ) ;
#245 = AXIS2_PLACEMENT_3D ( 'NONE', #659, #34, #311 ) ;
#246 = CARTESIAN_POINT ( 'NONE',  ( 158.5000000000000000, 34.99999999999999289, 6.735557395310478508E-16 ) ) ;
#247 = DIRECTION ( 'NONE',  ( -1.000000000000000000, 1.982541115402064863E-16, 0.000000000000000000 ) ) ;
#248 = ORIENTED_EDGE ( 'NONE', *, *, #882, .T. ) ;
#249 = PLANE ( 'NONE',  #254 ) ;
#250 = CARTESIAN_POINT ( 'NONE',  ( 21.50000000000000355, -20.00000000000000355, 0.000000000000000000 ) ) ;
#251 = VERTEX_POINT ( 'NONE', #685 ) ;
#252 = CC_DESIGN_PERSON_AND_ORGANIZATION_ASSIGNMENT ( #441, #722, ( #773 ) ) ;
#253 = CYLINDRICAL_SURFACE ( 'NONE', #637, 15.00000000000000000 ) ;
#254 = AXIS2_PLACEMENT_3D ( 'NONE', #791, #658, #115 ) ;
#255 = DIRECTION ( 'NONE',  ( -0.000000000000000000, 1.000000000000000000, -0.000000000000000000 ) ) ;
#256 = ORIENTED_EDGE ( 'NONE', *, *, #231, .T. ) ;
#257 = FACE_BOUND ( 'NONE', #415, .T. ) ;
#258 = APPROVAL_PERSON_ORGANIZATION ( #286, #96, #235 ) ;
#259 = CARTESIAN_POINT ( 'NONE',  ( 180.0000000000000000, 34.99999999999999289, 15.00000000000000000 ) ) ;
#260 = AXIS2_PLACEMENT_3D ( 'NONE', #784, #575, #715 ) ;
#261 = ORIENTED_EDGE ( 'NONE', *, *, #878, .F. ) ;
#262 = AXIS2_PLACEMENT_3D ( 'NONE', #307, #44, #314 ) ;
#263 = CARTESIAN_POINT ( 'NONE',  ( 35.00000000000001421, -65.00000000000000000, -15.00000000000000000 ) ) ;
#264 = CARTESIAN_POINT ( 'NONE',  ( 169.5000000000000000, 65.00000000000000000, 0.000000000000000000 ) ) ;
#265 = ORIENTED_EDGE ( 'NONE', *, *, #428, .F. ) ;
#266 = EDGE_LOOP ( 'NONE', ( #87, #524, #848, #353 ) ) ;
#267 = EDGE_CURVE ( 'NONE', #390, #635, #889, .T. ) ;
#268 = MECHANICAL_CONTEXT ( 'NONE', #732, 'mechanical' ) ;
#269 = CARTESIAN_POINT ( 'NONE',  ( 169.5000000000000000, 34.99999999999999289, 0.000000000000000000 ) ) ;
#270 = DIRECTION ( 'NONE',  ( 9.251858538542971828E-16, -1.000000000000000000, -0.000000000000000000 ) ) ;
#271 = ORIENTED_EDGE ( 'NONE', *, *, #147, .F. ) ;
#272 = EDGE_CURVE ( 'NONE', #426, #45, #675, .T. ) ;
#273 = LINE ( 'NONE', #422, #338 ) ;
#274 = CARTESIAN_POINT ( 'NONE',  ( 145.0000000000000000, 34.99999999999998579, 15.00000000000000000 ) ) ;
#275 = DIRECTION ( 'NONE',  ( 1.000000000000000000, 8.673617379884033500E-16, 0.000000000000000000 ) ) ;
#276 = LOCAL_TIME ( 15, 54, 48.00000000000000000, #709 ) ;
#277 = ORIENTED_EDGE ( 'NONE', *, *, #662, .T. ) ;
#278 = PERSON_AND_ORGANIZATION_ROLE ( 'creator' ) ;
#279 = EDGE_CURVE ( 'NONE', #624, #48, #215, .T. ) ;
#280 = CARTESIAN_POINT ( 'NONE',  ( 164.9999999999999716, 64.99999999999997158, 0.000000000000000000 ) ) ;
#281 = ORIENTED_EDGE ( 'NONE', *, *, #12, .T. ) ;
#282 = DIRECTION ( 'NONE',  ( 9.251858538542971828E-16, -1.000000000000000000, 0.000000000000000000 ) ) ;
#283 = CC_DESIGN_DATE_AND_TIME_ASSIGNMENT ( #558, #840, ( #336 ) ) ;
#284 = DIRECTION ( 'NONE',  ( -1.914177628664062882E-16, 1.000000000000000000, 0.000000000000000000 ) ) ;
#285 = DIRECTION ( 'NONE',  ( 1.000000000000000000, -6.308085367188395171E-16, 0.000000000000000000 ) ) ;
#286 = PERSON_AND_ORGANIZATION ( #839, #691 ) ;
#287 = AXIS2_PLACEMENT_3D ( 'NONE', #677, #547, #688 ) ;
#288 = CARTESIAN_POINT ( 'NONE',  ( 180.0000000000000000, 34.99999999999999289, 0.000000000000000000 ) ) ;
#289 = DIRECTION ( 'NONE',  ( 1.982541115402064863E-16, 1.000000000000000000, -0.000000000000000000 ) ) ;
#290 = VECTOR ( 'NONE', #544, 1000.000000000000000 ) ;
#291 = ORIENTED_EDGE ( 'NONE', *, *, #903, .T. ) ;
#292 = FACE_OUTER_BOUND ( 'NONE', #352, .T. ) ;
#293 = PERSON_AND_ORGANIZATION ( #839, #691 ) ;
#294 = CARTESIAN_POINT ( 'NONE',  ( 165.0000000000000284, -64.99999999999997158, -15.00000000000000000 ) ) ;
#295 = ORIENTED_EDGE ( 'NONE', *, *, #481, .F. ) ;
#296 = CARTESIAN_POINT ( 'NONE',  ( 145.0000000000000000, -34.99999999999998579, 15.00000000000000000 ) ) ;
#297 = EDGE_CURVE ( 'NONE', #424, #449, #173, .T. ) ;
#298 = DIRECTION ( 'NONE',  ( -0.000000000000000000, 0.000000000000000000, 1.000000000000000000 ) ) ;
#299 = LOCAL_TIME ( 15, 54, 48.00000000000000000, #704 ) ;
#300 = AXIS2_PLACEMENT_3D ( 'NONE', #526, #804, #179 ) ;
#301 = ADVANCED_FACE ( 'NONE', ( #68, #345 ), #606, .F. ) ;
#302 = APPROVAL_ROLE ( '' ) ;
#303 = DIRECTION ( 'NONE',  ( 1.000000000000000000, 0.000000000000000000, 0.000000000000000000 ) ) ;
#304 = CARTESIAN_POINT ( 'NONE',  ( 165.0000000000000284, -64.99999999999998579, 0.000000000000000000 ) ) ;
#305 = AXIS2_PLACEMENT_3D ( 'NONE', #280, #135, #478 ) ;
#306 = DIRECTION ( 'NONE',  ( -1.000000000000000000, 0.000000000000000000, 0.000000000000000000 ) ) ;
#307 = CARTESIAN_POINT ( 'NONE',  ( 15.99999999999998934, 64.99999999999997158, 0.000000000000000000 ) ) ;
#308 = ORIENTED_EDGE ( 'NONE', *, *, #445, .T. ) ;
#309 = CARTESIAN_POINT ( 'NONE',  ( 35.00000000000000000, 19.99999999999997868, 15.00000000000000000 ) ) ;
#310 = EDGE_CURVE ( 'NONE', #751, #785, #400, .T. ) ;
#311 = DIRECTION ( 'NONE',  ( -1.000000000000000000, 0.000000000000000000, 0.000000000000000000 ) ) ;
#312 = ORIENTED_EDGE ( 'NONE', *, *, #882, .F. ) ;
#313 = DIRECTION ( 'NONE',  ( -0.000000000000000000, -0.000000000000000000, -1.000000000000000000 ) ) ;
#314 = DIRECTION ( 'NONE',  ( 1.000000000000000000, 0.000000000000000000, 0.000000000000000000 ) ) ;
#315 = ORIENTED_EDGE ( 'NONE', *, *, #12, .F. ) ;
#316 = CARTESIAN_POINT ( 'NONE',  ( 75.00000000000000000, 24.99999999999997513, -15.00000000000000000 ) ) ;
#317 = DIRECTION ( 'NONE',  ( 1.000000000000000000, 0.000000000000000000, 0.000000000000000000 ) ) ;
#318 = ORIENTED_EDGE ( 'NONE', *, *, #486, .T. ) ;
#319 = EDGE_CURVE ( 'NONE', #780, #426, #341, .T. ) ;
#320 = FACE_OUTER_BOUND ( 'NONE', #82, .T. ) ;
#321 = CARTESIAN_POINT ( 'NONE',  ( 35.00000000000000000, 19.99999999999997868, -15.00000000000000000 ) ) ;
#322 = VERTEX_POINT ( 'NONE', #404 ) ;
#323 = EDGE_CURVE ( 'NONE', #382, #676, #757, .T. ) ;
#324 = CARTESIAN_POINT ( 'NONE',  ( 35.00000000000001421, -65.00000000000000000, 15.00000000000000000 ) ) ;
#325 = DIRECTION ( 'NONE',  ( 1.000000000000000000, 1.982541115402065356E-16, 0.000000000000000000 ) ) ;
#326 = ORIENTED_EDGE ( 'NONE', *, *, #348, .F. ) ;
#327 = AXIS2_PLACEMENT_3D ( 'NONE', #674, #538, #62 ) ;
#328 = VECTOR ( 'NONE', #465, 1000.000000000000000 ) ;
#329 = DIRECTION ( 'NONE',  ( 0.000000000000000000, -1.000000000000000000, 0.000000000000000000 ) ) ;
#330 = DIRECTION ( 'NONE',  ( 1.982541115402065356E-16, -1.000000000000000000, 0.000000000000000000 ) ) ;
#331 = AXIS2_PLACEMENT_3D ( 'NONE', #9, #559, #303 ) ;
#332 = EDGE_LOOP ( 'NONE', ( #463, #600, #234, #483 ) ) ;
#333 = APPLICATION_PROTOCOL_DEFINITION ( 'international standard', 'config_control_design', 1994, #855 ) ;
#334 = LINE ( 'NONE', #900, #171 ) ;
#335 = CARTESIAN_POINT ( 'NONE',  ( 15.99999999999999645, 19.99999999999999645, 0.000000000000000000 ) ) ;
#336 = PRODUCT_DEFINITION ( 'UNKNOWN', '', #409, #471 ) ;
#337 = ORIENTED_EDGE ( 'NONE', *, *, #416, .T. ) ;
#338 = VECTOR ( 'NONE', #344, 1000.000000000000000 ) ;
#339 = CYLINDRICAL_SURFACE ( 'NONE', #678, 5.500000000000005329 ) ;
#340 = CIRCLE ( 'NONE', #24, 39.99999999999999289 ) ;
#341 = LINE ( 'NONE', #259, #727 ) ;
#342 = EDGE_LOOP ( 'NONE', ( #475, #899, #641, #83 ) ) ;
#343 = EDGE_CURVE ( 'NONE', #152, #18, #393, .T. ) ;
#344 = DIRECTION ( 'NONE',  ( 9.251858538542971828E-16, -1.000000000000000000, 0.000000000000000000 ) ) ;
#345 = FACE_OUTER_BOUND ( 'NONE', #667, .T. ) ;
#346 = ADVANCED_BREP_SHAPE_REPRESENTATION ( 'pieza jornada 1', ( #516, #574 ), #225 ) ;
#347 = ORIENTED_EDGE ( 'NONE', *, *, #147, .T. ) ;
#348 = EDGE_CURVE ( 'NONE', #567, #18, #888, .T. ) ;
#349 = AXIS2_PLACEMENT_3D ( 'NONE', #217, #229, #573 ) ;
#350 = PERSON_AND_ORGANIZATION ( #839, #691 ) ;
#351 = LINE ( 'NONE', #566, #103 ) ;
#352 = EDGE_LOOP ( 'NONE', ( #326, #636, #265, #363 ) ) ;
#353 = ORIENTED_EDGE ( 'NONE', *, *, #153, .F. ) ;
#354 = LINE ( 'NONE', #195, #615 ) ;
#355 = CYLINDRICAL_SURFACE ( 'NONE', #260, 5.500000000000005329 ) ;
#356 = ORIENTED_EDGE ( 'NONE', *, *, #319, .F. ) ;
#357 = CARTESIAN_POINT ( 'NONE',  ( 15.99999999999999645, 19.99999999999999645, 0.000000000000000000 ) ) ;
#358 = CARTESIAN_POINT ( 'NONE',  ( 165.0000000000000284, -64.99999999999997158, 0.000000000000000000 ) ) ;
#359 = VECTOR ( 'NONE', #765, 1000.000000000000000 ) ;
#360 = EDGE_CURVE ( 'NONE', #890, #122, #56, .T. ) ;
#361 = EDGE_LOOP ( 'NONE', ( #640, #31, #398, #414, #886 ) ) ;
#362 = DIRECTION ( 'NONE',  ( 1.541976423090495387E-16, -1.000000000000000000, 0.000000000000000000 ) ) ;
#363 = ORIENTED_EDGE ( 'NONE', *, *, #343, .T. ) ;
#364 = CYLINDRICAL_SURFACE ( 'NONE', #466, 15.00000000000001421 ) ;
#365 = CC_DESIGN_PERSON_AND_ORGANIZATION_ASSIGNMENT ( #502, #517, ( #409 ) ) ;
#366 = DIRECTION ( 'NONE',  ( -0.000000000000000000, -0.000000000000000000, -1.000000000000000000 ) ) ;
#367 = LINE ( 'NONE', #646, #127 ) ;
#368 = ORIENTED_EDGE ( 'NONE', *, *, #402, .T. ) ;
#369 = VECTOR ( 'NONE', #446, 1000.000000000000000 ) ;
#370 = CYLINDRICAL_SURFACE ( 'NONE', #726, 40.00000000000000000 ) ;
#371 = DIRECTION ( 'NONE',  ( 0.000000000000000000, 0.000000000000000000, -1.000000000000000000 ) ) ;
#372 = CIRCLE ( 'NONE', #245, 5.500000000000005329 ) ;
#373 = ORIENTED_EDGE ( 'NONE', *, *, #178, .F. ) ;
#374 = COORDINATED_UNIVERSAL_TIME_OFFSET ( 1, 0, .AHEAD. ) ;
#375 = AXIS2_PLACEMENT_3D ( 'NONE', #580, #491, #498 ) ;
#376 = LINE ( 'NONE', #36, #740 ) ;
#377 = LINE ( 'NONE', #805, #512 ) ;
#378 = VERTEX_POINT ( 'NONE', #407 ) ;
#379 = CARTESIAN_POINT ( 'NONE',  ( 164.9999999999999716, 34.99999999999999289, -15.00000000000000000 ) ) ;
#380 = FACE_OUTER_BOUND ( 'NONE', #725, .T. ) ;
#381 = CIRCLE ( 'NONE', #737, 15.00000000000000000 ) ;
#382 = VERTEX_POINT ( 'NONE', #689 ) ;
#383 = DIRECTION ( 'NONE',  ( -1.000000000000000000, 5.947623346206195330E-16, -0.000000000000000000 ) ) ;
#384 = CARTESIAN_POINT ( 'NONE',  ( 164.9999999999999716, 64.99999999999997158, -15.00000000000000000 ) ) ;
#385 = EDGE_CURVE ( 'NONE', #806, #48, #556, .T. ) ;
#386 = EDGE_LOOP ( 'NONE', ( #824, #532, #213, #495 ) ) ;
#387 = DIRECTION ( 'NONE',  ( -1.000000000000000000, 0.000000000000000000, 0.000000000000000000 ) ) ;
#388 = FACE_OUTER_BOUND ( 'NONE', #872, .T. ) ;
#389 = AXIS2_PLACEMENT_3D ( 'NONE', #37, #108, #814 ) ;
#390 = VERTEX_POINT ( 'NONE', #901 ) ;
#391 = EDGE_CURVE ( 'NONE', #382, #136, #819, .T. ) ;
#392 = CYLINDRICAL_SURFACE ( 'NONE', #327, 40.00000000000000000 ) ;
#393 = LINE ( 'NONE', #898, #15 ) ;
#394 = ORIENTED_EDGE ( 'NONE', *, *, #832, .F. ) ;
#395 = EDGE_CURVE ( 'NONE', #45, #467, #750, .T. ) ;
#396 = CARTESIAN_POINT ( 'NONE',  ( 164.0000000000000000, 65.00000000000000000, 0.000000000000000000 ) ) ;
#397 = DIRECTION ( 'NONE',  ( -1.000000000000000000, -0.000000000000000000, -0.000000000000000000 ) ) ;
#398 = ORIENTED_EDGE ( 'NONE', *, *, #878, .T. ) ;
#399 = AXIS2_PLACEMENT_3D ( 'NONE', #891, #543, #464 ) ;
#400 = CIRCLE ( 'NONE', #638, 5.500000000000005329 ) ;
#401 = APPLICATION_PROTOCOL_DEFINITION ( 'international standard', 'config_control_design', 1994, #732 ) ;
#402 = EDGE_CURVE ( 'NONE', #780, #390, #211, .T. ) ;
#403 = DIRECTION ( 'NONE',  ( -1.914177628664062882E-16, 1.000000000000000000, 0.000000000000000000 ) ) ;
#404 = CARTESIAN_POINT ( 'NONE',  ( 165.0000000000000000, -34.99999999999997868, -15.00000000000000000 ) ) ;
#405 = VERTEX_POINT ( 'NONE', #25 ) ;
#406 = FACE_OUTER_BOUND ( 'NONE', #789, .T. ) ;
#407 = CARTESIAN_POINT ( 'NONE',  ( 0.000000000000000000, 20.00000000000000000, 0.000000000000000000 ) ) ;
#408 = VERTEX_POINT ( 'NONE', #504 ) ;
#409 = PRODUCT_DEFINITION_FORMATION_WITH_SPECIFIED_SOURCE ( 'ANY', '', #710, .NOT_KNOWN. ) ;
#410 = CALENDAR_DATE ( 2026, 3, 3 ) ;
#411 = FACE_OUTER_BOUND ( 'NONE', #160, .T. ) ;
#412 = AXIS2_PLACEMENT_3D ( 'NONE', #706, #289, #430 ) ;
#413 = DIRECTION ( 'NONE',  ( 0.000000000000000000, 1.000000000000000000, -0.000000000000000000 ) ) ;
#414 = ORIENTED_EDGE ( 'NONE', *, *, #657, .F. ) ;
#415 = EDGE_LOOP ( 'NONE', ( #582, #88 ) ) ;
#416 = EDGE_CURVE ( 'NONE', #695, #869, #220, .T. ) ;
#417 = CARTESIAN_POINT ( 'NONE',  ( 158.5000000000000284, -64.99999999999997158, 6.735557395310478508E-16 ) ) ;
#418 = LINE ( 'NONE', #788, #450 ) ;
#419 = ORIENTED_EDGE ( 'NONE', *, *, #550, .T. ) ;
#420 = VECTOR ( 'NONE', #224, 1000.000000000000000 ) ;
#421 = VECTOR ( 'NONE', #739, 1000.000000000000000 ) ;
#422 = CARTESIAN_POINT ( 'NONE',  ( 164.9999999999999716, 1.526556658859590243E-13, -15.00000000000000000 ) ) ;
#423 = LINE ( 'NONE', #145, #420 ) ;
#424 = VERTEX_POINT ( 'NONE', #642 ) ;
#425 = ORIENTED_EDGE ( 'NONE', *, *, #535, .F. ) ;
#426 = VERTEX_POINT ( 'NONE', #634 ) ;
#427 = DATE_AND_TIME ( #655, #807 ) ;
#428 = EDGE_CURVE ( 'NONE', #152, #322, #72, .T. ) ;
#429 = CARTESIAN_POINT ( 'NONE',  ( 169.5000000000000000, 65.00000000000000000, 0.000000000000000000 ) ) ;
#430 = DIRECTION ( 'NONE',  ( -1.000000000000000000, 0.000000000000000000, 0.000000000000000000 ) ) ;
#431 = ORIENTED_EDGE ( 'NONE', *, *, #267, .T. ) ;
#432 = CARTESIAN_POINT ( 'NONE',  ( 180.0000000000000284, -64.99999999999997158, 0.000000000000000000 ) ) ;
#433 = PERSON_AND_ORGANIZATION_ROLE ( 'creator' ) ;
#434 = EDGE_CURVE ( 'NONE', #449, #378, #485, .T. ) ;
#435 = DIRECTION ( 'NONE',  ( 1.000000000000000000, 0.000000000000000000, 0.000000000000000000 ) ) ;
#436 = VERTEX_POINT ( 'NONE', #429 ) ;
#437 = ORIENTED_EDGE ( 'NONE', *, *, #106, .T. ) ;
#438 = CYLINDRICAL_SURFACE ( 'NONE', #331, 5.500000000000005329 ) ;
#439 = VERTEX_POINT ( 'NONE', #151 ) ;
#440 = ORIENTED_EDGE ( 'NONE', *, *, #759, .T. ) ;
#441 = PERSON_AND_ORGANIZATION ( #839, #691 ) ;
#442 = DIRECTION ( 'NONE',  ( 1.000000000000000000, 0.000000000000000000, 0.000000000000000000 ) ) ;
#443 = CARTESIAN_POINT ( 'NONE',  ( 164.9999999999999716, 64.99999999999997158, 15.00000000000000000 ) ) ;
#444 = ORIENTED_EDGE ( 'NONE', *, *, #856, .F. ) ;
#445 = EDGE_CURVE ( 'NONE', #467, #251, #654, .T. ) ;
#446 = DIRECTION ( 'NONE',  ( -0.000000000000000000, -0.000000000000000000, 1.000000000000000000 ) ) ;
#447 = FACE_BOUND ( 'NONE', #820, .T. ) ;
#448 = AXIS2_PLACEMENT_3D ( 'NONE', #652, #30, #587 ) ;
#449 = VERTEX_POINT ( 'NONE', #719 ) ;
#450 = VECTOR ( 'NONE', #366, 1000.000000000000000 ) ;
#451 = DIRECTION ( 'NONE',  ( 1.000000000000000000, 0.000000000000000000, 0.000000000000000000 ) ) ;
#452 = DIRECTION ( 'NONE',  ( 0.000000000000000000, 0.000000000000000000, 1.000000000000000000 ) ) ;
#453 = ORIENTED_EDGE ( 'NONE', *, *, #579, .T. ) ;
#454 = EDGE_CURVE ( 'NONE', #251, #17, #769, .T. ) ;
#455 = CARTESIAN_POINT ( 'NONE',  ( 0.000000000000000000, 20.00000000000000000, -15.00000000000000000 ) ) ;
#456 = CARTESIAN_POINT ( 'NONE',  ( 35.00000000000000000, 19.99999999999997868, 15.00000000000000000 ) ) ;
#457 = APPROVAL_PERSON_ORGANIZATION ( #772, #501, #302 ) ;
#458 = ORIENTED_EDGE ( 'NONE', *, *, #622, .T. ) ;
#459 = AXIS2_PLACEMENT_3D ( 'NONE', #796, #165, #442 ) ;
#460 = LINE ( 'NONE', #863, #505 ) ;
#461 = EDGE_CURVE ( 'NONE', #834, #660, #423, .T. ) ;
#462 = FACE_OUTER_BOUND ( 'NONE', #190, .T. ) ;
#463 = ORIENTED_EDGE ( 'NONE', *, *, #385, .T. ) ;
#464 = DIRECTION ( 'NONE',  ( 1.000000000000000000, 0.000000000000000000, 0.000000000000000000 ) ) ;
#465 = DIRECTION ( 'NONE',  ( 1.000000000000000000, -1.982541115402064617E-16, 0.000000000000000000 ) ) ;
#466 = AXIS2_PLACEMENT_3D ( 'NONE', #304, #849, #853 ) ;
#467 = VERTEX_POINT ( 'NONE', #645 ) ;
#468 = DIRECTION ( 'NONE',  ( 1.982541115402065356E-16, -1.000000000000000000, -0.000000000000000000 ) ) ;
#469 = DIRECTION ( 'NONE',  ( 1.914177628664062882E-16, -1.000000000000000000, -0.000000000000000000 ) ) ;
#470 = ORIENTED_EDGE ( 'NONE', *, *, #850, .T. ) ;
#471 = DESIGN_CONTEXT ( 'detailed design', #855, 'design' ) ;
#472 =( LENGTH_UNIT ( ) NAMED_UNIT ( * ) SI_UNIT ( .MILLI., .METRE. ) );
#473 = PLANE ( 'NONE',  #754 ) ;
#474 = DIRECTION ( 'NONE',  ( 0.000000000000000000, 0.000000000000000000, -1.000000000000000000 ) ) ;
#475 = ORIENTED_EDGE ( 'NONE', *, *, #486, .F. ) ;
#476 = DIRECTION ( 'NONE',  ( -1.000000000000000000, -1.982541115402065110E-16, 0.000000000000000000 ) ) ;
#477 = CYLINDRICAL_SURFACE ( 'NONE', #203, 15.00000000000000000 ) ;
#478 = DIRECTION ( 'NONE',  ( 0.000000000000000000, 0.000000000000000000, -1.000000000000000000 ) ) ;
#479 = ORIENTED_EDGE ( 'NONE', *, *, #591, .F. ) ;
#480 = LINE ( 'NONE', #693, #799 ) ;
#481 = EDGE_CURVE ( 'NONE', #3, #572, #418, .T. ) ;
#482 = CARTESIAN_POINT ( 'NONE',  ( 164.9999999999999716, 64.99999999999997158, 15.00000000000000000 ) ) ;
#483 = ORIENTED_EDGE ( 'NONE', *, *, #832, .T. ) ;
#484 = AXIS2_PLACEMENT_3D ( 'NONE', #723, #801, #387 ) ;
#485 = LINE ( 'NONE', #846, #700 ) ;
#486 = EDGE_CURVE ( 'NONE', #834, #436, #583, .T. ) ;
#487 = ORIENTED_EDGE ( 'NONE', *, *, #697, .F. ) ;
#488 = ORIENTED_EDGE ( 'NONE', *, *, #402, .F. ) ;
#489 = CALENDAR_DATE ( 2026, 3, 3 ) ;
#490 = AXIS2_PLACEMENT_3D ( 'NONE', #539, #828, #202 ) ;
#491 = DIRECTION ( 'NONE',  ( -1.982541115402065356E-16, 1.000000000000000000, -0.000000000000000000 ) ) ;
#492 = EDGE_LOOP ( 'NONE', ( #198, #510, #243, #701 ) ) ;
#493 = DIRECTION ( 'NONE',  ( -1.000000000000000000, 0.000000000000000000, 0.000000000000000000 ) ) ;
#494 = VECTOR ( 'NONE', #620, 1000.000000000000000 ) ;
#495 = ORIENTED_EDGE ( 'NONE', *, *, #238, .F. ) ;
#496 = ADVANCED_FACE ( 'NONE', ( #774 ), #355, .F. ) ;
#497 = DATE_AND_TIME ( #857, #581 ) ;
#498 = DIRECTION ( 'NONE',  ( 1.000000000000000000, 0.000000000000000000, 0.000000000000000000 ) ) ;
#499 = ORIENTED_EDGE ( 'NONE', *, *, #162, .F. ) ;
#500 = LINE ( 'NONE', #157, #795 ) ;
#501 = APPROVAL ( #132, 'UNSPECIFIED' ) ;
#502 = PERSON_AND_ORGANIZATION ( #839, #691 ) ;
#503 = AXIS2_PLACEMENT_3D ( 'NONE', #554, #821, #8 ) ;
#504 = CARTESIAN_POINT ( 'NONE',  ( 75.00000000000002842, -64.99999999999998579, 15.00000000000000000 ) ) ;
#505 = VECTOR ( 'NONE', #530, 1000.000000000000000 ) ;
#506 = ORIENTED_EDGE ( 'NONE', *, *, #579, .F. ) ;
#507 = EDGE_LOOP ( 'NONE', ( #528, #261, #227, #762 ) ) ;
#508 = EDGE_CURVE ( 'NONE', #408, #511, #571, .T. ) ;
#509 = CARTESIAN_POINT ( 'NONE',  ( 35.00000000000000000, 24.99999999999997513, 15.00000000000000000 ) ) ;
#510 = ORIENTED_EDGE ( 'NONE', *, *, #310, .F. ) ;
#511 = VERTEX_POINT ( 'NONE', #80 ) ;
#512 = VECTOR ( 'NONE', #876, 1000.000000000000000 ) ;
#513 = CARTESIAN_POINT ( 'NONE',  ( 164.0000000000000284, -34.99999999999997868, 0.000000000000000000 ) ) ;
#514 = ADVANCED_FACE ( 'NONE', ( #779 ), #438, .F. ) ;
#515 = ORIENTED_EDGE ( 'NONE', *, *, #141, .F. ) ;
#516 = MANIFOLD_SOLID_BREP ( 'Redondeo2', #167 ) ;
#517 = PERSON_AND_ORGANIZATION_ROLE ( 'design_supplier' ) ;
#518 = DIRECTION ( 'NONE',  ( 1.000000000000000000, 1.541976423090495387E-16, -0.000000000000000000 ) ) ;
#519 = PLANE ( 'NONE',  #101 ) ;
#520 = VERTEX_POINT ( 'NONE', #288 ) ;
#521 = FACE_OUTER_BOUND ( 'NONE', #204, .T. ) ;
#522 = CARTESIAN_POINT ( 'NONE',  ( 145.0000000000000000, 34.99999999999998579, -15.00000000000000000 ) ) ;
#523 = AXIS2_PLACEMENT_3D ( 'NONE', #208, #197, #325 ) ;
#524 = ORIENTED_EDGE ( 'NONE', *, *, #19, .T. ) ;
#525 = EDGE_CURVE ( 'NONE', #405, #811, #351, .T. ) ;
#526 = CARTESIAN_POINT ( 'NONE',  ( 164.0000000000000284, -64.99999999999997158, 0.000000000000000000 ) ) ;
#527 = LINE ( 'NONE', #522, #73 ) ;
#528 = ORIENTED_EDGE ( 'NONE', *, *, #759, .F. ) ;
#529 = CC_DESIGN_PERSON_AND_ORGANIZATION_ASSIGNMENT ( #830, #278, ( #336 ) ) ;
#530 = DIRECTION ( 'NONE',  ( -1.000000000000000000, 5.947623346206195330E-16, -0.000000000000000000 ) ) ;
#531 = PLANE ( 'NONE',  #119 ) ;
#532 = ORIENTED_EDGE ( 'NONE', *, *, #721, .F. ) ;
#533 = AXIS2_PLACEMENT_3D ( 'NONE', #661, #518, #875 ) ;
#534 = LINE ( 'NONE', #831, #563 ) ;
#535 = EDGE_CURVE ( 'NONE', #635, #520, #610, .T. ) ;
#536 = CARTESIAN_POINT ( 'NONE',  ( 169.5000000000000000, 65.00000000000000000, 0.000000000000000000 ) ) ;
#537 = EDGE_LOOP ( 'NONE', ( #786, #163, #621, #603, #156 ) ) ;
#538 = DIRECTION ( 'NONE',  ( 0.000000000000000000, 0.000000000000000000, -1.000000000000000000 ) ) ;
#539 = CARTESIAN_POINT ( 'NONE',  ( 165.0000000000000284, -64.99999999999997158, 0.000000000000000000 ) ) ;
#540 = AXIS2_PLACEMENT_3D ( 'NONE', #164, #95, #493 ) ;
#541 = VERTEX_POINT ( 'NONE', #5 ) ;
#542 = CARTESIAN_POINT ( 'NONE',  ( 180.0000000000000000, 64.99999999999997158, 0.000000000000000000 ) ) ;
#543 = DIRECTION ( 'NONE',  ( 1.914177628664062882E-16, -1.000000000000000000, -0.000000000000000000 ) ) ;
#544 = DIRECTION ( 'NONE',  ( 1.914177628664062882E-16, -1.000000000000000000, -0.000000000000000000 ) ) ;
#545 = ORIENTED_EDGE ( 'NONE', *, *, #856, .T. ) ;
#546 = PERSON_AND_ORGANIZATION ( #839, #691 ) ;
#547 = DIRECTION ( 'NONE',  ( 5.947623346206195330E-16, 1.000000000000000000, -0.000000000000000000 ) ) ;
#548 = CARTESIAN_POINT ( 'NONE',  ( 164.9999999999999716, 64.99999999999997158, 0.000000000000000000 ) ) ;
#549 = ORIENTED_EDGE ( 'NONE', *, *, #391, .F. ) ;
#550 = EDGE_CURVE ( 'NONE', #122, #635, #214, .T. ) ;
#551 = DIRECTION ( 'NONE',  ( 0.000000000000000000, 0.000000000000000000, 1.000000000000000000 ) ) ;
#552 = CARTESIAN_POINT ( 'NONE',  ( 21.49999999999998579, 64.99999999999997158, 0.000000000000000000 ) ) ;
#553 = ORIENTED_EDGE ( 'NONE', *, *, #297, .T. ) ;
#554 = CARTESIAN_POINT ( 'NONE',  ( 15.00000000000000000, 19.99999999999998934, 0.000000000000000000 ) ) ;
#555 = EDGE_CURVE ( 'NONE', #18, #511, #143, .T. ) ;
#556 = LINE ( 'NONE', #64, #494 ) ;
#557 = ORIENTED_EDGE ( 'NONE', *, *, #272, .T. ) ;
#558 = DATE_AND_TIME ( #410, #299 ) ;
#559 = DIRECTION ( 'NONE',  ( 1.914177628664062882E-16, -1.000000000000000000, -0.000000000000000000 ) ) ;
#560 = ORIENTED_EDGE ( 'NONE', *, *, #454, .T. ) ;
#561 = CARTESIAN_POINT ( 'NONE',  ( 75.00000000000001421, -24.99999999999999289, 15.00000000000000000 ) ) ;
#562 = ORIENTED_EDGE ( 'NONE', *, *, #454, .F. ) ;
#563 = VECTOR ( 'NONE', #764, 1000.000000000000000 ) ;
#564 = COORDINATED_UNIVERSAL_TIME_OFFSET ( 1, 0, .AHEAD. ) ;
#565 = AXIS2_PLACEMENT_3D ( 'NONE', #747, #755, #275 ) ;
#566 = CARTESIAN_POINT ( 'NONE',  ( 35.00000000000000711, -20.00000000000000711, 15.00000000000000000 ) ) ;
#567 = VERTEX_POINT ( 'NONE', #294 ) ;
#568 = EDGE_CURVE ( 'NONE', #48, #811, #589, .T. ) ;
#569 = VECTOR ( 'NONE', #397, 1000.000000000000000 ) ;
#570 = PRODUCT_DEFINITION_SHAPE ( 'NONE', 'NONE',  #336 ) ;
#571 = LINE ( 'NONE', #89, #776 ) ;
#572 = VERTEX_POINT ( 'NONE', #870 ) ;
#573 = DIRECTION ( 'NONE',  ( 0.000000000000000000, 0.000000000000000000, 1.000000000000000000 ) ) ;
#574 = AXIS2_PLACEMENT_3D ( 'NONE', #835, #4, #144 ) ;
#575 = DIRECTION ( 'NONE',  ( 1.914177628664062882E-16, -1.000000000000000000, -0.000000000000000000 ) ) ;
#576 = CIRCLE ( 'NONE', #484, 5.500000000000005329 ) ;
#577 = ORIENTED_EDGE ( 'NONE', *, *, #508, .F. ) ;
#578 = APPROVAL_DATE_TIME ( #427, #501 ) ;
#579 = EDGE_CURVE ( 'NONE', #3, #780, #376, .T. ) ;
#580 = CARTESIAN_POINT ( 'NONE',  ( 165.0000000000000000, -34.99999999999997868, 0.000000000000000000 ) ) ;
#581 = LOCAL_TIME ( 15, 54, 48.00000000000000000, #374 ) ;
#582 = ORIENTED_EDGE ( 'NONE', *, *, #323, .T. ) ;
#583 = CIRCLE ( 'NONE', #816, 5.500000000000005329 ) ;
#584 = DATE_AND_TIME ( #219, #276 ) ;
#585 = AXIS2_PLACEMENT_3D ( 'NONE', #663, #599, #452 ) ;
#586 = CARTESIAN_POINT ( 'NONE',  ( 169.5000000000000284, -64.99999999999997158, 0.000000000000000000 ) ) ;
#587 = DIRECTION ( 'NONE',  ( 1.000000000000000000, 0.000000000000000000, 0.000000000000000000 ) ) ;
#588 = VERTEX_POINT ( 'NONE', #593 ) ;
#589 = LINE ( 'NONE', #110, #369 ) ;
#590 = LINE ( 'NONE', #611, #359 ) ;
#591 = EDGE_CURVE ( 'NONE', #676, #117, #728, .T. ) ;
#592 = ORIENTED_EDGE ( 'NONE', *, *, #385, .F. ) ;
#593 = CARTESIAN_POINT ( 'NONE',  ( 35.00000000000000000, 19.99999999999997868, -15.00000000000000000 ) ) ;
#594 = DIRECTION ( 'NONE',  ( 1.982541115402064863E-16, 1.000000000000000000, -0.000000000000000000 ) ) ;
#595 = VECTOR ( 'NONE', #52, 1000.000000000000000 ) ;
#596 = ORIENTED_EDGE ( 'NONE', *, *, #622, .F. ) ;
#597 = ADVANCED_FACE ( 'NONE', ( #521 ), #249, .F. ) ;
#598 = DIRECTION ( 'NONE',  ( -0.000000000000000000, 1.000000000000000000, -0.000000000000000000 ) ) ;
#599 = DIRECTION ( 'NONE',  ( 0.000000000000000000, 1.000000000000000000, 0.000000000000000000 ) ) ;
#600 = ORIENTED_EDGE ( 'NONE', *, *, #568, .T. ) ;
#601 = DIRECTION ( 'NONE',  ( 0.000000000000000000, -1.000000000000000000, 0.000000000000000000 ) ) ;
#602 = PLANE ( 'NONE',  #389 ) ;
#603 = ORIENTED_EDGE ( 'NONE', *, *, #238, .T. ) ;
#604 = APPROVAL ( #687, 'UNSPECIFIED' ) ;
#605 = PLANE ( 'NONE',  #11 ) ;
#606 = PLANE ( 'NONE',  #523 ) ;
#607 = ORIENTED_EDGE ( 'NONE', *, *, #84, .T. ) ;
#608 = AXIS2_PLACEMENT_3D ( 'NONE', #548, #679, #474 ) ;
#609 = DIRECTION ( 'NONE',  ( 1.000000000000000000, 0.000000000000000000, 0.000000000000000000 ) ) ;
#610 = CIRCLE ( 'NONE', #111, 15.00000000000001421 ) ;
#611 = CARTESIAN_POINT ( 'NONE',  ( 15.00000000000000000, 0.000000000000000000, -15.00000000000000000 ) ) ;
#612 = DIRECTION ( 'NONE',  ( -1.000000000000000000, 2.312964634635742957E-16, 0.000000000000000000 ) ) ;
#613 = FACE_OUTER_BOUND ( 'NONE', #507, .T. ) ;
#614 = DIRECTION ( 'NONE',  ( -5.947623346206195330E-16, -1.000000000000000000, 0.000000000000000000 ) ) ;
#615 = VECTOR ( 'NONE', #148, 1000.000000000000000 ) ;
#616 = ORIENTED_EDGE ( 'NONE', *, *, #212, .F. ) ;
#617 = EDGE_CURVE ( 'NONE', #439, #588, #33, .T. ) ;
#618 = CIRCLE ( 'NONE', #300, 5.500000000000005329 ) ;
#619 = CARTESIAN_POINT ( 'NONE',  ( 169.5000000000000284, -34.99999999999997868, 0.000000000000000000 ) ) ;
#620 = DIRECTION ( 'NONE',  ( 1.541976423090495387E-16, -1.000000000000000000, 0.000000000000000000 ) ) ;
#621 = ORIENTED_EDGE ( 'NONE', *, *, #395, .F. ) ;
#622 = EDGE_CURVE ( 'NONE', #660, #792, #576, .T. ) ;
#623 = LINE ( 'NONE', #47, #328 ) ;
#624 = VERTEX_POINT ( 'NONE', #175 ) ;
#625 = CIRCLE ( 'NONE', #150, 40.00000000000000711 ) ;
#626 = PERSON_AND_ORGANIZATION_ROLE ( 'design_owner' ) ;
#627 = EDGE_CURVE ( 'NONE', #17, #541, #340, .T. ) ;
#628 = DIRECTION ( 'NONE',  ( 1.982541115402065356E-16, -1.000000000000000000, -0.000000000000000000 ) ) ;
#629 = DIRECTION ( 'NONE',  ( -0.000000000000000000, -0.000000000000000000, -1.000000000000000000 ) ) ;
#630 = ORIENTED_EDGE ( 'NONE', *, *, #319, .T. ) ;
#631 = DIRECTION ( 'NONE',  ( 1.000000000000000000, 0.000000000000000000, 0.000000000000000000 ) ) ;
#632 = ORIENTED_EDGE ( 'NONE', *, *, #461, .F. ) ;
#633 = EDGE_CURVE ( 'NONE', #785, #751, #97, .T. ) ;
#634 = CARTESIAN_POINT ( 'NONE',  ( 164.9999999999999716, 34.99999999999999289, 15.00000000000000000 ) ) ;
#635 = VERTEX_POINT ( 'NONE', #379 ) ;
#636 = ORIENTED_EDGE ( 'NONE', *, *, #903, .F. ) ;
#637 = AXIS2_PLACEMENT_3D ( 'NONE', #186, #746, #10 ) ;
#638 = AXIS2_PLACEMENT_3D ( 'NONE', #2, #330, #121 ) ;
#639 = DIRECTION ( 'NONE',  ( 1.914177628664062882E-16, -1.000000000000000000, -0.000000000000000000 ) ) ;
#640 = ORIENTED_EDGE ( 'NONE', *, *, #668, .T. ) ;
#641 = ORIENTED_EDGE ( 'NONE', *, *, #206, .F. ) ;
#642 = CARTESIAN_POINT ( 'NONE',  ( 15.00000000000000000, -20.00000000000000355, 15.00000000000000000 ) ) ;
#643 = CARTESIAN_POINT ( 'NONE',  ( 35.00000000000000711, -25.00000000000000000, -15.00000000000000000 ) ) ;
#644 = CIRCLE ( 'NONE', #503, 15.00000000000000000 ) ;
#645 = CARTESIAN_POINT ( 'NONE',  ( 75.00000000000000000, 64.99999999999997158, 15.00000000000000000 ) ) ;
#646 = CARTESIAN_POINT ( 'NONE',  ( 35.00000000000000711, -20.00000000000000711, 15.00000000000000000 ) ) ;
#647 = VECTOR ( 'NONE', #154, 1000.000000000000000 ) ;
#648 = EDGE_LOOP ( 'NONE', ( #730, #470 ) ) ;
#649 = ORIENTED_EDGE ( 'NONE', *, *, #231, .F. ) ;
#650 = ADVANCED_FACE ( 'NONE', ( #734 ), #107, .F. ) ;
#651 = DIRECTION ( 'NONE',  ( 0.000000000000000000, 0.000000000000000000, -1.000000000000000000 ) ) ;
#652 = CARTESIAN_POINT ( 'NONE',  ( 165.0000000000000000, -34.99999999999997868, 0.000000000000000000 ) ) ;
#653 = EDGE_LOOP ( 'NONE', ( #515, #21, #216, #373 ) ) ;
#654 = CIRCLE ( 'NONE', #731, 39.99999999999999289 ) ;
#655 = CALENDAR_DATE ( 2026, 3, 3 ) ;
#656 = CIRCLE ( 'NONE', #864, 5.499999999999994671 ) ;
#657 = EDGE_CURVE ( 'NONE', #439, #696, #460, .T. ) ;
#658 = DIRECTION ( 'NONE',  ( -0.000000000000000000, 0.000000000000000000, 1.000000000000000000 ) ) ;
#659 = CARTESIAN_POINT ( 'NONE',  ( 164.0000000000000000, 34.99999999999999289, 0.000000000000000000 ) ) ;
#660 = VERTEX_POINT ( 'NONE', #246 ) ;
#661 = CARTESIAN_POINT ( 'NONE',  ( 35.00000000000000711, -20.00000000000000711, 15.00000000000000000 ) ) ;
#662 = EDGE_CURVE ( 'NONE', #869, #695, #618, .T. ) ;
#663 = CARTESIAN_POINT ( 'NONE',  ( 164.9999999999999716, 64.99999999999997158, 0.000000000000000000 ) ) ;
#664 = ORIENTED_EDGE ( 'NONE', *, *, #893, .T. ) ;
#665 = FACE_OUTER_BOUND ( 'NONE', #829, .T. ) ;
#666 = DIRECTION ( 'NONE',  ( 1.914177628664062882E-16, -1.000000000000000000, -0.000000000000000000 ) ) ;
#667 = EDGE_LOOP ( 'NONE', ( #194, #815, #545, #295, #312 ) ) ;
#668 = EDGE_CURVE ( 'NONE', #588, #75, #43, .T. ) ;
#669 = CARTESIAN_POINT ( 'NONE',  ( 10.50000000000000000, 20.00000000000000000, 6.735557395310443995E-16 ) ) ;
#670 = VECTOR ( 'NONE', #116, 1000.000000000000000 ) ;
#671 = CARTESIAN_POINT ( 'NONE',  ( 0.000000000000000000, -20.00000000000000000, 15.00000000000000000 ) ) ;
#672 = ORIENTED_EDGE ( 'NONE', *, *, #360, .F. ) ;
#673 = ADVANCED_FACE ( 'NONE', ( #665 ), #39, .F. ) ;
#674 = CARTESIAN_POINT ( 'NONE',  ( 75.00000000000000000, 24.99999999999997513, 15.00000000000000000 ) ) ;
#675 = LINE ( 'NONE', #482, #53 ) ;
#676 = VERTEX_POINT ( 'NONE', #669 ) ;
#677 = CARTESIAN_POINT ( 'NONE',  ( 15.00000000000000000, 19.99999999999999289, 0.000000000000000000 ) ) ;
#678 = AXIS2_PLACEMENT_3D ( 'NONE', #396, #124, #609 ) ;
#679 = DIRECTION ( 'NONE',  ( -0.000000000000000000, 1.000000000000000000, -0.000000000000000000 ) ) ;
#680 = ORIENTED_EDGE ( 'NONE', *, *, #627, .F. ) ;
#681 = CIRCLE ( 'NONE', #608, 15.00000000000000000 ) ;
#682 = LINE ( 'NONE', #752, #155 ) ;
#683 = DIRECTION ( 'NONE',  ( -1.000000000000000000, -1.914177628664062882E-16, 0.000000000000000000 ) ) ;
#684 = ADVANCED_FACE ( 'NONE', ( #320 ), #232, .T. ) ;
#685 = CARTESIAN_POINT ( 'NONE',  ( 35.00000000000000000, 24.99999999999997513, 15.00000000000000000 ) ) ;
#686 = EDGE_LOOP ( 'NONE', ( #577, #281, #69, #77, #756 ) ) ;
#687 = APPROVAL_STATUS ( 'not_yet_approved' ) ;
#688 = DIRECTION ( 'NONE',  ( 1.000000000000000000, -6.938893903907228378E-16, 0.000000000000000000 ) ) ;
#689 = CARTESIAN_POINT ( 'NONE',  ( 21.49999999999999289, 19.99999999999999289, 0.000000000000000000 ) ) ;
#690 = ADVANCED_FACE ( 'NONE', ( #98 ), #370, .T. ) ;
#691 = ORGANIZATION ( 'UNSPECIFIED', 'UNSPECIFIED', '' ) ;
#692 = VECTOR ( 'NONE', #313, 1000.000000000000000 ) ;
#693 = CARTESIAN_POINT ( 'NONE',  ( 15.00000000000000000, -20.00000000000000000, 15.00000000000000000 ) ) ;
#694 = DIRECTION ( 'NONE',  ( -1.000000000000000000, 2.312964634635742957E-16, 0.000000000000000000 ) ) ;
#695 = VERTEX_POINT ( 'NONE', #586 ) ;
#696 = VERTEX_POINT ( 'NONE', #866 ) ;
#697 = EDGE_CURVE ( 'NONE', #624, #567, #236, .T. ) ;
#698 = CC_DESIGN_SECURITY_CLASSIFICATION ( #773, ( #409 ) ) ;
#699 = DIRECTION ( 'NONE',  ( 1.914177628664062882E-16, -1.000000000000000000, 0.000000000000000000 ) ) ;
#700 = VECTOR ( 'NONE', #20, 1000.000000000000000 ) ;
#701 = ORIENTED_EDGE ( 'NONE', *, *, #662, .F. ) ;
#702 = AXIS2_PLACEMENT_3D ( 'NONE', #880, #40, #317 ) ;
#703 = ADVANCED_FACE ( 'NONE', ( #257, #128 ), #473, .F. ) ;
#704 = COORDINATED_UNIVERSAL_TIME_OFFSET ( 1, 0, .AHEAD. ) ;
#705 = CARTESIAN_POINT ( 'NONE',  ( 164.0000000000000000, 65.00000000000000000, 0.000000000000000000 ) ) ;
#706 = CARTESIAN_POINT ( 'NONE',  ( 16.00000000000000711, -20.00000000000000355, 0.000000000000000000 ) ) ;
#707 = ORIENTED_EDGE ( 'NONE', *, *, #70, .F. ) ;
#708 = CARTESIAN_POINT ( 'NONE',  ( 35.00000000000000000, 24.99999999999997513, -15.00000000000000000 ) ) ;
#709 = COORDINATED_UNIVERSAL_TIME_OFFSET ( 1, 0, .AHEAD. ) ;
#710 = PRODUCT ( 'pieza jornada 1', 'pieza jornada 1', '', ( #268 ) ) ;
#711 = CARTESIAN_POINT ( 'NONE',  ( 164.0000000000000284, -64.99999999999997158, 0.000000000000000000 ) ) ;
#712 = LINE ( 'NONE', #86, #139 ) ;
#713 = ORIENTED_EDGE ( 'NONE', *, *, #808, .F. ) ;
#714 = ORIENTED_EDGE ( 'NONE', *, *, #279, .T. ) ;
#715 = DIRECTION ( 'NONE',  ( 1.000000000000000000, 0.000000000000000000, 0.000000000000000000 ) ) ;
#716 = ADVANCED_FACE ( 'NONE', ( #406 ), #392, .T. ) ;
#717 = ORIENTED_EDGE ( 'NONE', *, *, #744, .F. ) ;
#718 = DIRECTION ( 'NONE',  ( 0.000000000000000000, 0.000000000000000000, -1.000000000000000000 ) ) ;
#719 = CARTESIAN_POINT ( 'NONE',  ( 0.000000000000000000, -20.00000000000000000, 0.000000000000000000 ) ) ;
#720 = ORIENTED_EDGE ( 'NONE', *, *, #617, .F. ) ;
#721 = EDGE_CURVE ( 'NONE', #520, #426, #842, .T. ) ;
#722 = PERSON_AND_ORGANIZATION_ROLE ( 'classification_officer' ) ;
#723 = CARTESIAN_POINT ( 'NONE',  ( 164.0000000000000000, 34.99999999999999289, 0.000000000000000000 ) ) ;
#724 = CARTESIAN_POINT ( 'NONE',  ( 165.0000000000000000, -34.99999999999997868, 15.00000000000000000 ) ) ;
#725 = EDGE_LOOP ( 'NONE', ( #707, #114, #65, #549 ) ) ;
#726 = AXIS2_PLACEMENT_3D ( 'NONE', #28, #651, #306 ) ;
#727 = VECTOR ( 'NONE', #130, 1000.000000000000000 ) ;
#728 = LINE ( 'NONE', #169, #885 ) ;
#729 = DIRECTION ( 'NONE',  ( -1.982541115402065356E-16, 1.000000000000000000, 0.000000000000000000 ) ) ;
#730 = ORIENTED_EDGE ( 'NONE', *, *, #42, .T. ) ;
#731 = AXIS2_PLACEMENT_3D ( 'NONE', #851, #298, #435 ) ;
#732 = APPLICATION_CONTEXT ( 'configuration controlled 3d designs of mechanical parts and assemblies' ) ;
#733 = ADVANCED_FACE ( 'NONE', ( #817 ), #339, .F. ) ;
#734 = FACE_OUTER_BOUND ( 'NONE', #332, .T. ) ;
#735 = FACE_OUTER_BOUND ( 'NONE', #537, .T. ) ;
#736 = ORIENTED_EDGE ( 'NONE', *, *, #721, .T. ) ;
#737 = AXIS2_PLACEMENT_3D ( 'NONE', #71, #137, #612 ) ;
#738 = DIRECTION ( 'NONE',  ( 1.982541115402065356E-16, -1.000000000000000000, 0.000000000000000000 ) ) ;
#739 = DIRECTION ( 'NONE',  ( -0.000000000000000000, -1.000000000000000000, -0.000000000000000000 ) ) ;
#740 = VECTOR ( 'NONE', #598, 1000.000000000000000 ) ;
#741 = ORIENTED_EDGE ( 'NONE', *, *, #668, .F. ) ;
#742 = DIRECTION ( 'NONE',  ( 1.000000000000000000, 0.000000000000000000, 0.000000000000000000 ) ) ;
#743 = CARTESIAN_POINT ( 'NONE',  ( 10.50000000000001066, -20.00000000000000355, 6.735557395310438079E-16 ) ) ;
#744 = EDGE_CURVE ( 'NONE', #75, #378, #242, .T. ) ;
#745 = ORIENTED_EDGE ( 'NONE', *, *, #51, .T. ) ;
#746 = DIRECTION ( 'NONE',  ( 0.000000000000000000, -1.000000000000000000, 0.000000000000000000 ) ) ;
#747 = CARTESIAN_POINT ( 'NONE',  ( 75.00000000000001421, -24.99999999999999289, -15.00000000000000000 ) ) ;
#748 = ORIENTED_EDGE ( 'NONE', *, *, #323, .F. ) ;
#749 = CARTESIAN_POINT ( 'NONE',  ( 0.000000000000000000, 20.00000000000000000, 15.00000000000000000 ) ) ;
#750 = LINE ( 'NONE', #125, #569 ) ;
#751 = VERTEX_POINT ( 'NONE', #619 ) ;
#752 = CARTESIAN_POINT ( 'NONE',  ( 180.0000000000000000, -34.99999999999997868, 15.00000000000000000 ) ) ;
#753 = DIRECTION ( 'NONE',  ( -1.000000000000000000, 0.000000000000000000, 0.000000000000000000 ) ) ;
#754 = AXIS2_PLACEMENT_3D ( 'NONE', #749, #192, #120 ) ;
#755 = DIRECTION ( 'NONE',  ( 0.000000000000000000, -0.000000000000000000, -1.000000000000000000 ) ) ;
#756 = ORIENTED_EDGE ( 'NONE', *, *, #555, .T. ) ;
#757 = CIRCLE ( 'NONE', #874, 5.499999999999994671 ) ;
#758 = FACE_OUTER_BOUND ( 'NONE', #653, .T. ) ;
#759 = EDGE_CURVE ( 'NONE', #696, #424, #480, .T. ) ;
#760 = DIRECTION ( 'NONE',  ( -1.000000000000000000, -0.000000000000000000, -0.000000000000000000 ) ) ;
#761 = DIRECTION ( 'NONE',  ( 1.000000000000000000, -6.308085367188395171E-16, 0.000000000000000000 ) ) ;
#762 = ORIENTED_EDGE ( 'NONE', *, *, #297, .F. ) ;
#763 = COORDINATED_UNIVERSAL_TIME_OFFSET ( 1, 0, .AHEAD. ) ;
#764 = DIRECTION ( 'NONE',  ( -0.000000000000000000, -0.000000000000000000, 1.000000000000000000 ) ) ;
#765 = DIRECTION ( 'NONE',  ( -0.000000000000000000, 1.000000000000000000, -0.000000000000000000 ) ) ;
#766 = EDGE_CURVE ( 'NONE', #122, #541, #334, .T. ) ;
#767 = ORIENTED_EDGE ( 'NONE', *, *, #445, .F. ) ;
#768 = AXIS2_PLACEMENT_3D ( 'NONE', #358, #639, #16 ) ;
#769 = LINE ( 'NONE', #509, #847 ) ;
#770 = ORIENTED_EDGE ( 'NONE', *, *, #51, .F. ) ;
#771 = ADVANCED_FACE ( 'NONE', ( #822 ), #883, .F. ) ;
#772 = PERSON_AND_ORGANIZATION ( #839, #691 ) ;
#773 = SECURITY_CLASSIFICATION ( '', '', #845 ) ;
#774 = FACE_OUTER_BOUND ( 'NONE', #342, .T. ) ;
#775 = CARTESIAN_POINT ( 'NONE',  ( 158.5000000000000000, 65.00000000000000000, 6.735557395310478508E-16 ) ) ;
#776 = VECTOR ( 'NONE', #74, 1000.000000000000000 ) ;
#777 = ORIENTED_EDGE ( 'NONE', *, *, #862, .T. ) ;
#778 = CARTESIAN_POINT ( 'NONE',  ( 15.00000000000000000, 19.99999999999998934, -15.00000000000000000 ) ) ;
#779 = FACE_OUTER_BOUND ( 'NONE', #492, .T. ) ;
#780 = VERTEX_POINT ( 'NONE', #274 ) ;
#781 = FACE_OUTER_BOUND ( 'NONE', #181, .T. ) ;
#782 = CC_DESIGN_APPROVAL ( #604, ( #336 ) ) ;
#783 = ADVANCED_FACE ( 'NONE', ( #827, #196 ), #605, .F. ) ;
#784 = CARTESIAN_POINT ( 'NONE',  ( 164.0000000000000000, 65.00000000000000000, 0.000000000000000000 ) ) ;
#785 = VERTEX_POINT ( 'NONE', #58 ) ;
#786 = ORIENTED_EDGE ( 'NONE', *, *, #766, .T. ) ;
#787 = ADVANCED_FACE ( 'NONE', ( #613 ), #812, .T. ) ;
#788 = CARTESIAN_POINT ( 'NONE',  ( 145.0000000000000000, -34.99999999999998579, 15.00000000000000000 ) ) ;
#789 = EDGE_LOOP ( 'NONE', ( #767, #713, #680, #562 ) ) ;
#790 = VECTOR ( 'NONE', #166, 1000.000000000000000 ) ;
#791 = CARTESIAN_POINT ( 'NONE',  ( 0.000000000000000000, 0.000000000000000000, -15.00000000000000000 ) ) ;
#792 = VERTEX_POINT ( 'NONE', #269 ) ;
#793 = ADVANCED_FACE ( 'NONE', ( #201 ), #477, .T. ) ;
#794 = APPROVAL_DATE_TIME ( #497, #96 ) ;
#795 = VECTOR ( 'NONE', #718, 1000.000000000000000 ) ;
#796 = CARTESIAN_POINT ( 'NONE',  ( 0.000000000000000000, 0.000000000000000000, 15.00000000000000000 ) ) ;
#797 = FACE_BOUND ( 'NONE', #648, .T. ) ;
#798 = ORIENTED_EDGE ( 'NONE', *, *, #141, .T. ) ;
#799 = VECTOR ( 'NONE', #329, 1000.000000000000000 ) ;
#800 = AXIS2_PLACEMENT_3D ( 'NONE', #140, #59, #694 ) ;
#801 = DIRECTION ( 'NONE',  ( -1.982541115402065356E-16, 1.000000000000000000, 0.000000000000000000 ) ) ;
#802 = CYLINDRICAL_SURFACE ( 'NONE', #585, 15.00000000000000000 ) ;
#803 = ORIENTED_EDGE ( 'NONE', *, *, #162, .T. ) ;
#804 = DIRECTION ( 'NONE',  ( -1.914177628664062882E-16, 1.000000000000000000, 0.000000000000000000 ) ) ;
#805 = CARTESIAN_POINT ( 'NONE',  ( 165.0000000000000000, -34.99999999999999289, 15.00000000000000000 ) ) ;
#806 = VERTEX_POINT ( 'NONE', #133 ) ;
#807 = LOCAL_TIME ( 15, 54, 48.00000000000000000, #564 ) ;
#808 = EDGE_CURVE ( 'NONE', #541, #467, #534, .T. ) ;
#809 = DIRECTION ( 'NONE',  ( 1.914177628664062882E-16, -1.000000000000000000, -0.000000000000000000 ) ) ;
#810 = CARTESIAN_POINT ( 'NONE',  ( 35.00000000000000000, 19.99999999999997868, 15.00000000000000000 ) ) ;
#811 = VERTEX_POINT ( 'NONE', #138 ) ;
#812 = CYLINDRICAL_SURFACE ( 'NONE', #50, 15.00000000000000000 ) ;
#813 = ADVANCED_FACE ( 'NONE', ( #411 ), #253, .T. ) ;
#814 = DIRECTION ( 'NONE',  ( 0.000000000000000000, -0.000000000000000000, -1.000000000000000000 ) ) ;
#815 = ORIENTED_EDGE ( 'NONE', *, *, #428, .T. ) ;
#816 = AXIS2_PLACEMENT_3D ( 'NONE', #705, #699, #161 ) ;
#817 = FACE_OUTER_BOUND ( 'NONE', #266, .T. ) ;
#818 = VECTOR ( 'NONE', #666, 1000.000000000000000 ) ;
#819 = LINE ( 'NONE', #552, #189 ) ;
#820 = EDGE_LOOP ( 'NONE', ( #803, #318 ) ) ;
#821 = DIRECTION ( 'NONE',  ( 5.947623346206195330E-16, 1.000000000000000000, -0.000000000000000000 ) ) ;
#822 = FACE_OUTER_BOUND ( 'NONE', #838, .T. ) ;
#823 = LINE ( 'NONE', #193, #129 ) ;
#824 = ORIENTED_EDGE ( 'NONE', *, *, #272, .F. ) ;
#825 = CC_DESIGN_PERSON_AND_ORGANIZATION_ASSIGNMENT ( #350, #626, ( #710 ) ) ;
#826 = APPROVAL_ROLE ( '' ) ;
#827 = FACE_BOUND ( 'NONE', #209, .T. ) ;
#828 = DIRECTION ( 'NONE',  ( 1.914177628664062882E-16, -1.000000000000000000, -0.000000000000000000 ) ) ;
#829 = EDGE_LOOP ( 'NONE', ( #479, #748, #222, #902 ) ) ;
#830 = PERSON_AND_ORGANIZATION ( #839, #691 ) ;
#831 = CARTESIAN_POINT ( 'NONE',  ( 75.00000000000000000, 64.99999999999997158, 15.00000000000000000 ) ) ;
#832 = EDGE_CURVE ( 'NONE', #405, #806, #367, .T. ) ;
#833 = DIRECTION ( 'NONE',  ( 1.000000000000000000, -1.982541115402064617E-16, 0.000000000000000000 ) ) ;
#834 = VERTEX_POINT ( 'NONE', #775 ) ;
#835 = CARTESIAN_POINT ( 'NONE',  ( 0.000000000000000000, 0.000000000000000000, 0.000000000000000000 ) ) ;
#836 = PRODUCT_RELATED_PRODUCT_CATEGORY ( 'detail', '', ( #710 ) ) ;
#837 = CARTESIAN_POINT ( 'NONE',  ( 180.0000000000000000, 34.99999999999999289, -15.00000000000000000 ) ) ;
#838 = EDGE_LOOP ( 'NONE', ( #632, #499, #177, #596 ) ) ;
#839 = PERSON ( 'UNSPECIFIED', 'UNSPECIFIED', 'UNSPECIFIED', ('UNSPECIFIED'), ('UNSPECIFIED'), ('UNSPECIFIED') ) ;
#840 = DATE_TIME_ROLE ( 'creation_date' ) ;
#841 = CARTESIAN_POINT ( 'NONE',  ( 164.9999999999999716, 34.99999999999999289, 0.000000000000000000 ) ) ;
#842 = CIRCLE ( 'NONE', #873, 15.00000000000001421 ) ;
#843 = ORIENTED_EDGE ( 'NONE', *, *, #106, .F. ) ;
#844 = VECTOR ( 'NONE', #54, 1000.000000000000000 ) ;
#845 = SECURITY_CLASSIFICATION_LEVEL ( 'unclassified' ) ;
#846 = CARTESIAN_POINT ( 'NONE',  ( 0.000000000000000000, 20.00000000000000000, 0.000000000000000000 ) ) ;
#847 = VECTOR ( 'NONE', #93, 1000.000000000000000 ) ;
#848 = ORIENTED_EDGE ( 'NONE', *, *, #416, .F. ) ;
#849 = DIRECTION ( 'NONE',  ( -9.251858538542971828E-16, 1.000000000000000000, -0.000000000000000000 ) ) ;
#850 = EDGE_CURVE ( 'NONE', #117, #136, #199, .T. ) ;
#851 = CARTESIAN_POINT ( 'NONE',  ( 75.00000000000000000, 24.99999999999997513, 15.00000000000000000 ) ) ;
#852 = ORIENTED_EDGE ( 'NONE', *, *, #535, .T. ) ;
#853 = DIRECTION ( 'NONE',  ( -1.000000000000000000, -9.251858538542961967E-16, 0.000000000000000000 ) ) ;
#854 = APPROVAL_PERSON_ORGANIZATION ( #546, #604, #826 ) ;
#855 = APPLICATION_CONTEXT ( 'configuration controlled 3d designs of mechanical parts and assemblies' ) ;
#856 = EDGE_CURVE ( 'NONE', #322, #572, #712, .T. ) ;
#857 = CALENDAR_DATE ( 2026, 3, 3 ) ;
#858 = VECTOR ( 'NONE', #383, 1000.000000000000000 ) ;
#859 = CARTESIAN_POINT ( 'NONE',  ( 145.0000000000000000, 34.99999999999998579, 15.00000000000000000 ) ) ;
#860 = LINE ( 'NONE', #90, #790 ) ;
#861 = DATE_TIME_ROLE ( 'classification_date' ) ;
#862 = EDGE_CURVE ( 'NONE', #449, #146, #381, .T. ) ;
#863 = CARTESIAN_POINT ( 'NONE',  ( 0.000000000000000000, 20.00000000000000000, 15.00000000000000000 ) ) ;
#864 = AXIS2_PLACEMENT_3D ( 'NONE', #357, #6, #285 ) ;
#865 = APPROVAL_STATUS ( 'not_yet_approved' ) ;
#866 = CARTESIAN_POINT ( 'NONE',  ( 15.00000000000000000, 19.99999999999998934, 15.00000000000000000 ) ) ;
#867 = ADVANCED_FACE ( 'NONE', ( #758 ), #61, .T. ) ;
#868 = FACE_BOUND ( 'NONE', #881, .T. ) ;
#869 = VERTEX_POINT ( 'NONE', #417 ) ;
#870 = CARTESIAN_POINT ( 'NONE',  ( 145.0000000000000000, -34.99999999999998579, -15.00000000000000000 ) ) ;
#871 = CYLINDRICAL_SURFACE ( 'NONE', #262, 5.499999999999994671 ) ;
#872 = EDGE_LOOP ( 'NONE', ( #553, #777, #226, #394, #649 ) ) ;
#873 = AXIS2_PLACEMENT_3D ( 'NONE', #46, #468, #753 ) ;
#874 = AXIS2_PLACEMENT_3D ( 'NONE', #335, #614, #761 ) ;
#875 = DIRECTION ( 'NONE',  ( -1.541976423090495387E-16, 1.000000000000000000, 0.000000000000000000 ) ) ;
#876 = DIRECTION ( 'NONE',  ( -9.251858538542971828E-16, 1.000000000000000000, -0.000000000000000000 ) ) ;
#877 = ORIENTED_EDGE ( 'NONE', *, *, #508, .T. ) ;
#878 = EDGE_CURVE ( 'NONE', #378, #696, #644, .T. ) ;
#879 = CARTESIAN_POINT ( 'NONE',  ( 15.99999999999998934, 64.99999999999997158, 0.000000000000000000 ) ) ;
#880 = CARTESIAN_POINT ( 'NONE',  ( 164.0000000000000000, 65.00000000000000000, 0.000000000000000000 ) ) ;
#881 = EDGE_LOOP ( 'NONE', ( #100, #458 ) ) ;
#882 = EDGE_CURVE ( 'NONE', #81, #3, #682, .T. ) ;
#883 = CYLINDRICAL_SURFACE ( 'NONE', #399, 5.500000000000005329 ) ;
#884 = LINE ( 'NONE', #536, #818 ) ;
#885 = VECTOR ( 'NONE', #240, 1000.000000000000000 ) ;
#886 = ORIENTED_EDGE ( 'NONE', *, *, #617, .T. ) ;
#887 = CARTESIAN_POINT ( 'NONE',  ( 164.9999999999999716, 0.000000000000000000, 0.000000000000000000 ) ) ;
#888 = CIRCLE ( 'NONE', #490, 15.00000000000001421 ) ;
#889 = LINE ( 'NONE', #837, #844 ) ;
#890 = VERTEX_POINT ( 'NONE', #542 ) ;
#891 = CARTESIAN_POINT ( 'NONE',  ( 164.0000000000000000, 65.00000000000000000, 0.000000000000000000 ) ) ;
#892 = LINE ( 'NONE', #264, #290 ) ;
#893 = EDGE_CURVE ( 'NONE', #890, #520, #354, .T. ) ;
#894 = ORIENTED_EDGE ( 'NONE', *, *, #525, .T. ) ;
#895 = DIRECTION ( 'NONE',  ( -1.000000000000000000, -1.982541115402065110E-16, 0.000000000000000000 ) ) ;
#896 = DIRECTION ( 'NONE',  ( 0.000000000000000000, 1.000000000000000000, -0.000000000000000000 ) ) ;
#897 = LOCAL_TIME ( 15, 54, 48.00000000000000000, #763 ) ;
#898 = CARTESIAN_POINT ( 'NONE',  ( 180.0000000000000284, -64.99999999999997158, 0.000000000000000000 ) ) ;
#899 = ORIENTED_EDGE ( 'NONE', *, *, #461, .T. ) ;
#900 = CARTESIAN_POINT ( 'NONE',  ( 35.00000000000000000, 64.99999999999997158, -15.00000000000000000 ) ) ;
#901 = CARTESIAN_POINT ( 'NONE',  ( 145.0000000000000000, 34.99999999999998579, -15.00000000000000000 ) ) ;
#902 = ORIENTED_EDGE ( 'NONE', *, *, #850, .F. ) ;
#903 = EDGE_CURVE ( 'NONE', #322, #567, #273, .T. ) ;
#904 = APPROVAL_DATE_TIME ( #200, #604 ) ;
ENDSEC;
END-ISO-10303-21;
